<svg xmlns="http://www.w3.org/2000/svg" width="3840" height="2160"><path d="M2072,889L2479,653L2006,414Z" fill="#efd7db" stroke="#efd7db" stroke-width="1.51"/><path d="M2479,653L2444,321L2006,414Z" fill="#e6bcc2" stroke="#e6bcc2" stroke-width="1.51"/><path d="M2072,889L2501,1172L2479,653Z" fill="#efecdc" stroke="#efecdc" stroke-width="1.51"/><path d="M2444,321L2369,-39L2006,414Z" fill="#de99aa" stroke="#de99aa" stroke-width="1.51"/><path d="M2006,414L1490,921L2072,889Z" fill="#f7deec" stroke="#f7deec" stroke-width="1.51"/><path d="M2072,889L1825,1404L2501,1172Z" fill="#f0f6e5" stroke="#f0f6e5" stroke-width="1.51"/><path d="M1316,195L1490,921L2006,414Z" fill="#f2b9d7" stroke="#f2b9d7" stroke-width="1.51"/><path d="M2369,-39L1683,-23L2006,414Z" fill="#d690a9" stroke="#d690a9" stroke-width="1.51"/><path d="M1490,921L1825,1404L2072,889Z" fill="#f8f3f5" stroke="#f8f3f5" stroke-width="1.51"/><path d="M3125,817L2876,85L2479,653Z" fill="#cab599" stroke="#cab599" stroke-width="1.51"/><path d="M2479,653L2876,85L2444,321Z" fill="#d3a69b" stroke="#d3a69b" stroke-width="1.51"/><path d="M2444,321L2876,85L2369,-39Z" fill="#c28c85" stroke="#c28c85" stroke-width="1.51"/><path d="M2501,1172L3125,817L2479,653Z" fill="#dbe2ba" stroke="#dbe2ba" stroke-width="1.51"/><path d="M1825,1404L2266,1585L2501,1172Z" fill="#dff2c6" stroke="#dff2c6" stroke-width="1.51"/><path d="M2501,1172L2963,1280L3125,817Z" fill="#cce4ae" stroke="#cce4ae" stroke-width="1.51"/><path d="M1683,-23L1316,195L2006,414Z" fill="#e38db4" stroke="#e38db4" stroke-width="1.51"/><path d="M2266,1585L2963,1280L2501,1172Z" fill="#d1ecae" stroke="#d1ecae" stroke-width="1.51"/><path d="M2876,85L2733,-322L2369,-39Z" fill="#ad8270" stroke="#ad8270" stroke-width="1.51"/><path d="M1929,-862L1445,-268L1683,-23Z" fill="#c9819e" stroke="#c9819e" stroke-width="1.51"/><path d="M1683,-23L1445,-268L1316,195Z" fill="#c8799b" stroke="#c8799b" stroke-width="1.51"/><path d="M1929,-862L1683,-23L2369,-39Z" fill="#c7899d" stroke="#c7899d" stroke-width="1.51"/><path d="M1825,1404L1979,2038L2266,1585Z" fill="#c2de9f" stroke="#c2de9f" stroke-width="1.51"/><path d="M1195,1500L1615,1685L1825,1404Z" fill="#dae0b8" stroke="#dae0b8" stroke-width="1.51"/><path d="M1195,1500L1825,1404L1490,921Z" fill="#f3e9e1" stroke="#f3e9e1" stroke-width="1.51"/><path d="M1316,195L998,170L1490,921Z" fill="#ea9dc6" stroke="#ea9dc6" stroke-width="1.51"/><path d="M1445,-268L998,170L1316,195Z" fill="#c86f99" stroke="#c86f99" stroke-width="1.51"/><path d="M3125,817L3534,457L2876,85Z" fill="#b09c79" stroke="#b09c79" stroke-width="1.51"/><path d="M2876,85L3345,-378L2733,-322Z" fill="#987555" stroke="#987555" stroke-width="1.51"/><path d="M3486,1156L3507,788L3125,817Z" fill="#adc18d" stroke="#adc18d" stroke-width="1.51"/><path d="M930,1071L1195,1500L1490,921Z" fill="#f3d9e3" stroke="#f3d9e3" stroke-width="1.51"/><path d="M998,170L930,1071L1490,921Z" fill="#f3bcdd" stroke="#f3bcdd" stroke-width="1.51"/><path d="M3507,788L3534,457L3125,817Z" fill="#aaae85" stroke="#aaae85" stroke-width="1.51"/><path d="M3507,788L3905,1079L3534,457Z" fill="#9ca681" stroke="#9ca681" stroke-width="1.51"/><path d="M2963,1280L3486,1156L3125,817Z" fill="#b6d397" stroke="#b6d397" stroke-width="1.51"/><path d="M2965,2014L3486,1156L2963,1280Z" fill="#9acc67" stroke="#9acc67" stroke-width="1.51"/><path d="M2266,1585L2965,2014L2963,1280Z" fill="#a6d570" stroke="#a6d570" stroke-width="1.51"/><path d="M1615,1685L1979,2038L1825,1404Z" fill="#c1d89f" stroke="#c1d89f" stroke-width="1.51"/><path d="M1898,2396L1979,2038L1204,2257Z" fill="#92a581" stroke="#92a581" stroke-width="1.51"/><path d="M1204,2257L1979,2038L1615,1685Z" fill="#a3b687" stroke="#a3b687" stroke-width="1.51"/><path d="M930,1071L1025,1452L1195,1500Z" fill="#e7ccc8" stroke="#e7ccc8" stroke-width="1.51"/><path d="M2733,-322L2575,-811L2369,-39Z" fill="#b38478" stroke="#b38478" stroke-width="1.51"/><path d="M2950,-848L2575,-811L2733,-322Z" fill="#a77f68" stroke="#a77f68" stroke-width="1.51"/><path d="M2575,-811L1929,-862L2369,-39Z" fill="#c1888f" stroke="#c1888f" stroke-width="1.51"/><path d="M1445,-268L733,-262L998,170Z" fill="#bf5f8e" stroke="#bf5f8e" stroke-width="1.51"/><path d="M3534,457L3345,-378L2876,85Z" fill="#8e6c4d" stroke="#8e6c4d" stroke-width="1.51"/><path d="M2637,2348L2965,2014L2266,1585Z" fill="#83b65a" stroke="#83b65a" stroke-width="1.51"/><path d="M3345,-378L2950,-848L2733,-322Z" fill="#967454" stroke="#967454" stroke-width="1.51"/><path d="M2575,-811L2950,-848L1929,-862Z" fill="#b7857f" stroke="#b7857f" stroke-width="1.51"/><path d="M1929,-862L1330,-812L1445,-268Z" fill="#c97d9d" stroke="#c97d9d" stroke-width="1.51"/><path d="M998,170L310,264L930,1071Z" fill="#e180b3" stroke="#e180b3" stroke-width="1.51"/><path d="M1082,-720L733,-262L1445,-268Z" fill="#c0628f" stroke="#c0628f" stroke-width="1.51"/><path d="M1330,-812L1082,-720L1445,-268Z" fill="#c46f96" stroke="#c46f96" stroke-width="1.51"/><path d="M3486,1156L3905,1079L3507,788Z" fill="#9cb587" stroke="#9cb587" stroke-width="1.51"/><path d="M3534,457L4008,236L3345,-378Z" fill="#7e5b47" stroke="#7e5b47" stroke-width="1.51"/><path d="M4133,1474L3905,1079L3486,1156Z" fill="#89ab76" stroke="#89ab76" stroke-width="1.51"/><path d="M2965,2014L3660,2062L3486,1156Z" fill="#6aaa34" stroke="#6aaa34" stroke-width="1.51"/><path d="M1979,2038L2637,2348L2266,1585Z" fill="#97be78" stroke="#97be78" stroke-width="1.51"/><path d="M1979,2038L1898,2396L2637,2348Z" fill="#89ab77" stroke="#89ab77" stroke-width="1.51"/><path d="M1204,2257L1615,1685L1195,1500Z" fill="#b6bc8e" stroke="#b6bc8e" stroke-width="1.51"/><path d="M733,-262L529,-87L998,170Z" fill="#b6447d" stroke="#b6447d" stroke-width="1.51"/><path d="M473,1907L878,1906L1025,1452Z" fill="#b49e7b" stroke="#b49e7b" stroke-width="1.51"/><path d="M346,-688L529,-87L733,-262Z" fill="#af2b70" stroke="#af2b70" stroke-width="1.51"/><path d="M1025,1452L878,1906L1195,1500Z" fill="#c9bb9a" stroke="#c9bb9a" stroke-width="1.51"/><path d="M240,1343L1025,1452L930,1071Z" fill="#e5b5bd" stroke="#e5b5bd" stroke-width="1.51"/><path d="M2637,2348L2961,2301L2965,2014Z" fill="#639940" stroke="#639940" stroke-width="1.51"/><path d="M3905,1079L4008,236L3534,457Z" fill="#8f8973" stroke="#8f8973" stroke-width="1.51"/><path d="M3345,-378L3584,-775L2950,-848Z" fill="#856746" stroke="#856746" stroke-width="1.51"/><path d="M878,1906L1204,2257L1195,1500Z" fill="#aaa781" stroke="#aaa781" stroke-width="1.51"/><path d="M529,-87L310,264L998,170Z" fill="#c03a81" stroke="#c03a81" stroke-width="1.51"/><path d="M310,264L256,866L930,1071Z" fill="#e487b6" stroke="#e487b6" stroke-width="1.51"/><path d="M3939,-397L3584,-775L3345,-378Z" fill="#72553d" stroke="#72553d" stroke-width="1.51"/><path d="M3057,2613L3305,2316L2961,2301Z" fill="#508d2b" stroke="#508d2b" stroke-width="1.51"/><path d="M2961,2301L3305,2316L2965,2014Z" fill="#528e2c" stroke="#528e2c" stroke-width="1.51"/><path d="M3057,2613L2961,2301L2637,2348Z" fill="#61973d" stroke="#61973d" stroke-width="1.51"/><path d="M4008,236L3939,-397L3345,-378Z" fill="#6b4d3a" stroke="#6b4d3a" stroke-width="1.51"/><path d="M878,1906L787,2094L1204,2257Z" fill="#948870" stroke="#948870" stroke-width="1.51"/><path d="M473,1907L787,2094L878,1906Z" fill="#9b8468" stroke="#9b8468" stroke-width="1.51"/><path d="M3305,2316L3660,2062L2965,2014Z" fill="#468523" stroke="#468523" stroke-width="1.51"/><path d="M256,866L240,1343L930,1071Z" fill="#e79ebd" stroke="#e79ebd" stroke-width="1.51"/><path d="M310,264L98,593L256,866Z" fill="#ce6399" stroke="#ce6399" stroke-width="1.51"/><path d="M256,866L-175,1155L240,1343Z" fill="#cf8ca4" stroke="#cf8ca4" stroke-width="1.51"/><path d="M-1,257L98,593L310,264Z" fill="#bd3e80" stroke="#bd3e80" stroke-width="1.51"/><path d="M1898,2396L2486,2724L2637,2348Z" fill="#84a96e" stroke="#84a96e" stroke-width="1.51"/><path d="M2151,3003L2486,2724L1898,2396Z" fill="#89ab77" stroke="#89ab77" stroke-width="1.51"/><path d="M3905,1079L4379,597L4008,236Z" fill="#8f8d76" stroke="#8f8d76" stroke-width="1.51"/><path d="M3660,2062L4133,1474L3486,1156Z" fill="#6da148" stroke="#6da148" stroke-width="1.51"/><path d="M240,1343L473,1907L1025,1452Z" fill="#c69b88" stroke="#c69b88" stroke-width="1.51"/><path d="M2486,2724L3057,2613L2637,2348Z" fill="#6c9f4b" stroke="#6c9f4b" stroke-width="1.51"/><path d="M4103,2404L3940,1997L3660,2062Z" fill="#286419" stroke="#286419" stroke-width="1.51"/><path d="M4008,236L4379,-245L3939,-397Z" fill="#674939" stroke="#674939" stroke-width="1.51"/><path d="M4530,1435L4379,597L3905,1079Z" fill="#90a983" stroke="#90a983" stroke-width="1.51"/><path d="M3800,2637L3660,2062L3305,2316Z" fill="#34731c" stroke="#34731c" stroke-width="1.51"/><path d="M3660,2062L3940,1997L4133,1474Z" fill="#458424" stroke="#458424" stroke-width="1.51"/><path d="M529,-87L-1,257L310,264Z" fill="#b4136f" stroke="#b4136f" stroke-width="1.51"/><path d="M98,593L-175,1155L256,866Z" fill="#cd7fa0" stroke="#cd7fa0" stroke-width="1.51"/><path d="M-307,-178L-1,257L529,-87Z" fill="#930356" stroke="#930356" stroke-width="1.51"/><path d="M1082,-720L346,-688L733,-262Z" fill="#b5417c" stroke="#b5417c" stroke-width="1.51"/><path d="M1330,-812L346,-688L1082,-720Z" fill="#bb5386" stroke="#bb5386" stroke-width="1.51"/><path d="M1076,2867L1207,2675L423,2707Z" fill="#8b7d6a" stroke="#8b7d6a" stroke-width="1.51"/><path d="M787,2094L1207,2675L1204,2257Z" fill="#8e8873" stroke="#8e8873" stroke-width="1.51"/><path d="M1204,2257L1207,2675L1898,2396Z" fill="#929d7e" stroke="#929d7e" stroke-width="1.51"/><path d="M4574,174L4379,-245L4008,236Z" fill="#6d4c3e" stroke="#6d4c3e" stroke-width="1.51"/><path d="M3939,-397L4125,-747L3584,-775Z" fill="#674939" stroke="#674939" stroke-width="1.51"/><path d="M3584,-775L4386,-792L2950,-848Z" fill="#71543d" stroke="#71543d" stroke-width="1.51"/><path d="M4379,-245L4125,-747L3939,-397Z" fill="#674939" stroke="#674939" stroke-width="1.51"/><path d="M2486,2724L3231,2790L3057,2613Z" fill="#5e963a" stroke="#5e963a" stroke-width="1.51"/><path d="M1207,2675L2151,3003L1898,2396Z" fill="#91a782" stroke="#91a782" stroke-width="1.51"/><path d="M3057,2613L3231,2790L3305,2316Z" fill="#4b8828" stroke="#4b8828" stroke-width="1.51"/><path d="M2151,3003L3231,2790L2486,2724Z" fill="#73a254" stroke="#73a254" stroke-width="1.51"/><path d="M4759,299L4574,174L4379,597Z" fill="#86695c" stroke="#86695c" stroke-width="1.51"/><path d="M4379,597L4574,174L4008,236Z" fill="#86665a" stroke="#86665a" stroke-width="1.51"/><path d="M-130,2083L311,2286L473,1907Z" fill="#7c5747" stroke="#7c5747" stroke-width="1.51"/><path d="M-631,746L-175,1155L98,593Z" fill="#c8799b" stroke="#c8799b" stroke-width="1.51"/><path d="M4133,1474L4530,1435L3905,1079Z" fill="#83a96c" stroke="#83a96c" stroke-width="1.51"/><path d="M4296,1932L4530,1435L4133,1474Z" fill="#62983e" stroke="#62983e" stroke-width="1.51"/><path d="M4296,1932L4133,1474L3940,1997Z" fill="#4a8827" stroke="#4a8827" stroke-width="1.51"/><path d="M4103,2404L4296,1932L3940,1997Z" fill="#2c691a" stroke="#2c691a" stroke-width="1.51"/><path d="M1207,2675L1076,2867L2151,3003Z" fill="#929f7f" stroke="#929f7f" stroke-width="1.51"/><path d="M423,2707L1207,2675L787,2094Z" fill="#8a7665" stroke="#8a7665" stroke-width="1.51"/><path d="M311,2286L787,2094L473,1907Z" fill="#8a6757" stroke="#8a6757" stroke-width="1.51"/><path d="M-130,2083L473,1907L240,1343Z" fill="#9b7456" stroke="#9b7456" stroke-width="1.51"/><path d="M3231,2790L3800,2637L3305,2316Z" fill="#3a7b1e" stroke="#3a7b1e" stroke-width="1.51"/><path d="M4574,174L4742,-192L4379,-245Z" fill="#674939" stroke="#674939" stroke-width="1.51"/><path d="M4379,-245L4386,-792L4125,-747Z" fill="#674939" stroke="#674939" stroke-width="1.51"/><path d="M4919,984L4759,299L4379,597Z" fill="#8f8c75" stroke="#8f8c75" stroke-width="1.51"/><path d="M3800,2637L4103,2404L3660,2062Z" fill="#276419" stroke="#276419" stroke-width="1.51"/><path d="M4296,1932L4743,1823L4530,1435Z" fill="#538f2c" stroke="#538f2c" stroke-width="1.51"/><path d="M4742,-192L4386,-792L4379,-245Z" fill="#674939" stroke="#674939" stroke-width="1.51"/><path d="M4125,-747L4386,-792L3584,-775Z" fill="#674939" stroke="#674939" stroke-width="1.51"/><path d="M-1,257L-631,746L98,593Z" fill="#bb5688" stroke="#bb5688" stroke-width="1.51"/><path d="M-173,-542L-307,-178L529,-87Z" fill="#8f0153" stroke="#8f0153" stroke-width="1.51"/><path d="M346,-688L-173,-542L529,-87Z" fill="#9e085f" stroke="#9e085f" stroke-width="1.51"/><path d="M4759,299L4742,-192L4574,174Z" fill="#724e41" stroke="#724e41" stroke-width="1.51"/><path d="M4361,2827L4273,2382L4103,2404Z" fill="#276419" stroke="#276419" stroke-width="1.51"/><path d="M4103,2404L4273,2382L4296,1932Z" fill="#276419" stroke="#276419" stroke-width="1.51"/><path d="M311,2286L423,2707L787,2094Z" fill="#845f54" stroke="#845f54" stroke-width="1.51"/><path d="M-231,2716L423,2707L311,2286Z" fill="#724e41" stroke="#724e41" stroke-width="1.51"/><path d="M-222,2048L-130,2083L240,1343Z" fill="#886948" stroke="#886948" stroke-width="1.51"/><path d="M-222,2048L240,1343L-175,1155Z" fill="#ab816d" stroke="#ab816d" stroke-width="1.51"/><path d="M4530,1435L4919,984L4379,597Z" fill="#91a882" stroke="#91a882" stroke-width="1.51"/><path d="M4759,299L5082,-457L4742,-192Z" fill="#674939" stroke="#674939" stroke-width="1.51"/><path d="M5132,1260L4919,984L4530,1435Z" fill="#89ab77" stroke="#89ab77" stroke-width="1.51"/><path d="M-712,154L-631,746L-1,257Z" fill="#b33d79" stroke="#b33d79" stroke-width="1.51"/><path d="M-173,-542L-384,-425L-307,-178Z" fill="#8e0152" stroke="#8e0152" stroke-width="1.51"/><path d="M-130,2083L-231,2716L311,2286Z" fill="#674939" stroke="#674939" stroke-width="1.51"/><path d="M-767,1493L-222,2048L-175,1155Z" fill="#a57d65" stroke="#a57d65" stroke-width="1.51"/><path d="M4273,2382L4743,1823L4296,1932Z" fill="#31701b" stroke="#31701b" stroke-width="1.51"/><path d="M-712,154L-1,257L-307,-178Z" fill="#970559" stroke="#970559" stroke-width="1.51"/><path d="M-384,-425L-579,-300L-307,-178Z" fill="#8e0152" stroke="#8e0152" stroke-width="1.51"/><path d="M-579,-300L-712,154L-307,-178Z" fill="#8e0152" stroke="#8e0152" stroke-width="1.51"/><path d="M4743,1823L5132,1260L4530,1435Z" fill="#6fa14f" stroke="#6fa14f" stroke-width="1.51"/><path d="M4919,984L5082,-457L4759,299Z" fill="#835e53" stroke="#835e53" stroke-width="1.51"/><path d="M-631,746L-767,1493L-175,1155Z" fill="#c6899c" stroke="#c6899c" stroke-width="1.51"/><path d="M-222,2048L-474,2293L-130,2083Z" fill="#684b3a" stroke="#684b3a" stroke-width="1.51"/><path d="M-712,154L-767,1493L-631,746Z" fill="#c7769a" stroke="#c7769a" stroke-width="1.51"/><path d="M5132,1260L5082,-457L4919,984Z" fill="#8e8872" stroke="#8e8872" stroke-width="1.51"/><path d="M4742,-192L5082,-457L4386,-792Z" fill="#674939" stroke="#674939" stroke-width="1.51"/><path d="M4273,2382L4977,2201L4743,1823Z" fill="#29661a" stroke="#29661a" stroke-width="1.51"/><path d="M4743,1823L4977,2201L5132,1260Z" fill="#4f8b2a" stroke="#4f8b2a" stroke-width="1.51"/><path d="M3800,2637L4361,2827L4103,2404Z" fill="#276419" stroke="#276419" stroke-width="1.51"/><path d="M3231,2790L4361,2827L3800,2637Z" fill="#29661a" stroke="#29661a" stroke-width="1.51"/><path d="M2151,3003L4361,2827L3231,2790Z" fill="#478626" stroke="#478626" stroke-width="1.51"/><path d="M-796,1951L-474,2293L-222,2048Z" fill="#6c4f3b" stroke="#6c4f3b" stroke-width="1.51"/><path d="M4692,2824L4977,2201L4273,2382Z" fill="#276419" stroke="#276419" stroke-width="1.51"/><path d="M423,2707L-674,2902L1076,2867Z" fill="#795247" stroke="#795247" stroke-width="1.51"/><path d="M1076,2867L-674,2902L2151,3003Z" fill="#8b7968" stroke="#8b7968" stroke-width="1.51"/><path d="M-474,2293L-231,2716L-130,2083Z" fill="#674939" stroke="#674939" stroke-width="1.51"/><path d="M-474,2293L-674,2902L-231,2716Z" fill="#674939" stroke="#674939" stroke-width="1.51"/><path d="M-767,1493L-796,1951L-222,2048Z" fill="#876948" stroke="#876948" stroke-width="1.51"/><path d="M-712,154L-796,1951L-767,1493Z" fill="#c48896" stroke="#c48896" stroke-width="1.51"/><path d="M4361,2827L4692,2824L4273,2382Z" fill="#276419" stroke="#276419" stroke-width="1.51"/><path d="M2151,3003L4692,2824L4361,2827Z" fill="#2c6a1a" stroke="#2c6a1a" stroke-width="1.51"/><path d="M-231,2716L-674,2902L423,2707Z" fill="#674939" stroke="#674939" stroke-width="1.51"/><path d="M-796,1951L-674,2902L-474,2293Z" fill="#674939" stroke="#674939" stroke-width="1.51"/></svg>